<svg width="232" height="106" viewBox="0 0 232 106" fill="none" xmlns="http://www.w3.org/2000/svg">
<mask id="path-1-inside-1_536_1566" fill="white">
<path fill-rule="evenodd" clip-rule="evenodd" d="M181.783 87.6687H136.337H90.8913V70.1125H136.337V52.5562H90.8913V35H136.337H181.783V52.5562V70.1125V87.6687Z"/>
</mask>
<path d="M181.783 87.6687V95.6687H189.783V87.6687H181.783ZM90.8913 87.6687H82.8913V95.6687H90.8913V87.6687ZM90.8913 70.1125V62.1125H82.8913V70.1125H90.8913ZM136.337 70.1125V78.1125H144.337V70.1125H136.337ZM136.337 52.5562H144.337V44.5562H136.337V52.5562ZM90.8913 52.5562H82.8913V60.5562H90.8913V52.5562ZM90.8913 35V27H82.8913V35H90.8913ZM181.783 35H189.783V27H181.783V35ZM136.337 95.6687H181.783V79.6687H136.337V95.6687ZM90.8913 95.6687H136.337V79.6687H90.8913V95.6687ZM82.8913 70.1125V87.6687H98.8913V70.1125H82.8913ZM136.337 62.1125H90.8913V78.1125H136.337V62.1125ZM128.337 52.5562V70.1125H144.337V52.5562H128.337ZM136.337 44.5562H90.8913V60.5562H136.337V44.5562ZM98.8913 52.5562V35H82.8913V52.5562H98.8913ZM90.8913 43H136.337V27H90.8913V43ZM181.783 27H136.337V43H181.783V27ZM189.783 52.5562V35H173.783V52.5562H189.783ZM189.783 70.1125V52.5562H173.783V70.1125H189.783ZM189.783 87.6687V70.1125H173.783V87.6687H189.783Z" fill="white" mask="url(#path-1-inside-1_536_1566)"/>
<mask id="path-3-inside-2_536_1566" fill="white">
<path fill-rule="evenodd" clip-rule="evenodd" d="M50.2174 17.5562H95.6631H141.109V35.1125H95.6631V52.6687H141.109V70.225H95.6631H50.2174V52.6687V35.1125V17.5562Z"/>
</mask>
<path d="M50.2174 17.5562V9.55624H42.2174V17.5562H50.2174ZM141.109 17.5562H149.109V9.55624H141.109V17.5562ZM141.109 35.1125V43.1125H149.109V35.1125H141.109ZM95.6631 35.1125V27.1125H87.6631V35.1125H95.6631ZM95.6631 52.6687H87.6631V60.6687H95.6631V52.6687ZM141.109 52.6687H149.109V44.6687H141.109V52.6687ZM141.109 70.225V78.225H149.109V70.225H141.109ZM50.2174 70.225H42.2174V78.225H50.2174V70.225ZM95.6631 9.55624H50.2174V25.5562H95.6631V9.55624ZM141.109 9.55624H95.6631V25.5562H141.109V9.55624ZM149.109 35.1125V17.5562H133.109V35.1125H149.109ZM95.6631 43.1125H141.109V27.1125H95.6631V43.1125ZM103.663 52.6687V35.1125H87.6631V52.6687H103.663ZM95.6631 60.6687H141.109V44.6687H95.6631V60.6687ZM133.109 52.6687V70.225H149.109V52.6687H133.109ZM141.109 62.225H95.6631V78.225H141.109V62.225ZM50.2174 78.225H95.6631V62.225H50.2174V78.225ZM42.2174 52.6687V70.225H58.2174V52.6687H42.2174ZM42.2174 35.1125V52.6687H58.2174V35.1125H42.2174ZM42.2174 17.5562V35.1125H58.2174V17.5562H42.2174Z" fill="white" mask="url(#path-3-inside-2_536_1566)"/>
</svg>
