<svg width="184" height="80" viewBox="0 0 184 80" fill="none" xmlns="http://www.w3.org/2000/svg">
<mask id="path-1-inside-1_536_1546" fill="white">
<path fill-rule="evenodd" clip-rule="evenodd" d="M148 66.75H111H74V53.5H111V40.25H74V27H111H148V40.25V53.5V66.75Z"/>
</mask>
<path d="M148 66.75V67.75H149V66.75H148ZM74 66.75H73V67.75H74V66.75ZM74 53.5V52.5H73V53.5H74ZM111 53.5V54.5H112V53.5H111ZM111 40.25H112V39.25H111V40.25ZM74 40.25H73V41.25H74V40.25ZM74 27V26H73V27H74ZM148 27H149V26H148V27ZM111 67.75H148V65.75H111V67.75ZM74 67.75H111V65.75H74V67.75ZM73 53.5V66.75H75V53.5H73ZM111 52.5H74V54.5H111V52.5ZM110 40.25V53.5H112V40.25H110ZM111 39.25H74V41.25H111V39.25ZM75 40.25V27H73V40.25H75ZM74 28H111V26H74V28ZM148 26H111V28H148V26ZM149 40.25V27H147V40.25H149ZM149 53.5V40.25H147V53.5H149ZM149 66.75V53.5H147V66.75H149Z" fill="white" mask="url(#path-1-inside-1_536_1546)"/>
<mask id="path-3-inside-2_536_1546" fill="white">
<path fill-rule="evenodd" clip-rule="evenodd" d="M36 13.25H73H110V26.5H73V39.75H110V53H73H36V39.75V26.5V13.25Z"/>
</mask>
<path d="M36 13.25V12.25H35V13.25H36ZM110 13.25H111V12.25H110V13.25ZM110 26.5V27.5H111V26.5H110ZM73 26.5V25.5H72V26.5H73ZM73 39.75H72V40.75H73V39.75ZM110 39.75H111V38.75H110V39.75ZM110 53V54H111V53H110ZM36 53H35V54H36V53ZM73 12.25H36V14.25H73V12.25ZM110 12.25H73V14.25H110V12.25ZM111 26.5V13.25H109V26.5H111ZM73 27.5H110V25.5H73V27.5ZM74 39.75V26.5H72V39.75H74ZM73 40.75H110V38.75H73V40.75ZM109 39.75V53H111V39.75H109ZM110 52H73V54H110V52ZM36 54H73V52H36V54ZM35 39.75V53H37V39.75H35ZM35 26.5V39.75H37V26.5H35ZM35 13.25V26.5H37V13.25H35Z" fill="white" mask="url(#path-3-inside-2_536_1546)"/>
</svg>
