<svg width="232" height="106" viewBox="0 0 232 106" fill="none" xmlns="http://www.w3.org/2000/svg">
<mask id="path-1-inside-1_536_1563" fill="white">
<path fill-rule="evenodd" clip-rule="evenodd" d="M181.783 87.6688H136.337H90.8913V70.1125H136.337V52.5563H90.8913V35H136.337H181.783V52.5563V70.1125V87.6688Z"/>
</mask>
<path d="M181.783 87.6688V91.6688H185.783V87.6688H181.783ZM90.8913 87.6688H86.8913V91.6688H90.8913V87.6688ZM90.8913 70.1125V66.1125H86.8913V70.1125H90.8913ZM136.337 70.1125V74.1125H140.337V70.1125H136.337ZM136.337 52.5563H140.337V48.5563H136.337V52.5563ZM90.8913 52.5563H86.8913V56.5563H90.8913V52.5563ZM90.8913 35V31H86.8913V35H90.8913ZM181.783 35H185.783V31H181.783V35ZM136.337 91.6688H181.783V83.6688H136.337V91.6688ZM90.8913 91.6688H136.337V83.6688H90.8913V91.6688ZM86.8913 70.1125V87.6688H94.8913V70.1125H86.8913ZM136.337 66.1125H90.8913V74.1125H136.337V66.1125ZM132.337 52.5563V70.1125H140.337V52.5563H132.337ZM136.337 48.5563H90.8913V56.5563H136.337V48.5563ZM94.8913 52.5563V35H86.8913V52.5563H94.8913ZM90.8913 39H136.337V31H90.8913V39ZM181.783 31H136.337V39H181.783V31ZM185.783 52.5563V35H177.783V52.5563H185.783ZM185.783 70.1125V52.5563H177.783V70.1125H185.783ZM185.783 87.6688V70.1125H177.783V87.6688H185.783Z" fill="white" mask="url(#path-1-inside-1_536_1563)"/>
<mask id="path-3-inside-2_536_1563" fill="white">
<path fill-rule="evenodd" clip-rule="evenodd" d="M50.2174 17.5562H95.6631H141.109V35.1125H95.6631V52.6687H141.109V70.225H95.6631H50.2174V52.6687V35.1125V17.5562Z"/>
</mask>
<path d="M50.2174 17.5562V13.5562H46.2174V17.5562H50.2174ZM141.109 17.5562H145.109V13.5562H141.109V17.5562ZM141.109 35.1125V39.1125H145.109V35.1125H141.109ZM95.6631 35.1125V31.1125H91.6631V35.1125H95.6631ZM95.6631 52.6687H91.6631V56.6687H95.6631V52.6687ZM141.109 52.6687H145.109V48.6687H141.109V52.6687ZM141.109 70.225V74.225H145.109V70.225H141.109ZM50.2174 70.225H46.2174V74.225H50.2174V70.225ZM95.6631 13.5562H50.2174V21.5562H95.6631V13.5562ZM141.109 13.5562H95.6631V21.5562H141.109V13.5562ZM145.109 35.1125V17.5562H137.109V35.1125H145.109ZM95.6631 39.1125H141.109V31.1125H95.6631V39.1125ZM99.6631 52.6687V35.1125H91.6631V52.6687H99.6631ZM95.6631 56.6687H141.109V48.6687H95.6631V56.6687ZM137.109 52.6687V70.225H145.109V52.6687H137.109ZM141.109 66.225H95.6631V74.225H141.109V66.225ZM50.2174 74.225H95.6631V66.225H50.2174V74.225ZM46.2174 52.6687V70.225H54.2174V52.6687H46.2174ZM46.2174 35.1125V52.6687H54.2174V35.1125H46.2174ZM46.2174 17.5562V35.1125H54.2174V17.5562H46.2174Z" fill="white" mask="url(#path-3-inside-2_536_1563)"/>
</svg>
